<svg width="164" height="49" viewBox="0 0 164 49" fill="none" xmlns="http://www.w3.org/2000/svg">
<g filter="url(#filter0_d)">
<path d="M3.0504 34.2673C3.1488 34.202 3.28 34.104 3.4768 33.9407C3.6736 33.7773 3.8704 33.516 4.1328 33.0913C4.3952 32.6667 4.6576 32.0787 4.9856 31.2947C5.3136 30.5107 5.576 29.4 5.904 28.0607C6.068 27.342 6.2976 26.4273 6.5928 25.3167C6.888 24.206 7.1832 22.9973 7.544 21.7233C7.872 20.4493 8.2328 19.1427 8.5936 17.8033C8.9544 16.464 9.2824 15.19 9.6104 13.9487C9.9384 12.7073 10.2336 11.6293 10.496 10.6493C10.7584 9.66933 10.9552 8.88533 11.1192 8.36267C10.6928 8.624 10.2992 8.918 9.9056 9.24467C9.5448 9.53867 9.184 9.86533 8.7904 10.2247C8.3968 10.584 8.0032 10.976 7.6424 11.368C7.3472 11.1393 7.1504 10.878 6.9864 10.584C6.888 10.4533 6.8224 10.3227 6.7568 10.1593C6.6256 9.83267 6.56 9.506 6.56 9.14667C6.56 8.78733 6.8224 8.428 7.38 8.06867C7.6752 7.87267 8.1016 7.57867 8.692 7.21933C9.2824 6.86 10.004 6.468 10.8568 6.10867C11.7096 5.74933 12.7264 5.42267 13.8744 5.16133C15.0224 4.9 16.2688 4.76933 17.6792 4.76933C19.0896 4.76933 20.172 5.03067 21.0248 5.586C21.8776 6.14133 22.5336 6.79467 22.96 7.57867C23.4192 8.36267 23.7144 9.212 23.8456 10.0613C23.9768 10.9433 24.0096 11.6947 23.944 12.348C23.8128 13.5893 23.4192 14.8633 22.7632 16.2027C22.1072 17.542 21.1888 18.7833 20.0408 19.894C18.86 21.0373 17.4496 21.9847 15.7768 22.7687C14.104 23.5527 12.2016 24.01 10.0368 24.108C9.8728 24.9247 9.676 25.8067 9.512 26.656C9.348 27.538 9.1512 28.3873 8.9544 29.2367C8.7576 30.086 8.5608 30.87 8.3312 31.5887C8.1344 32.3073 7.9048 32.9607 7.6752 33.4833C7.4456 34.0387 7.1832 34.496 6.8224 34.8553C6.4616 35.182 5.904 35.378 5.1496 35.378C4.756 35.378 4.3952 35.28 4.0344 35.084C3.6408 34.888 3.3128 34.6267 3.0504 34.2673ZM10.8568 19.2733C10.7912 19.6327 10.6928 20.09 10.5944 20.6453C10.496 21.2007 10.3648 21.8213 10.2336 22.54C10.824 22.442 11.48 22.2787 12.2016 22.05C12.9232 21.8213 13.6448 21.4947 14.3664 21.1027C15.088 20.7107 15.8096 20.2207 16.4984 19.6653C17.1872 19.11 17.8104 18.4567 18.4008 17.738C18.9584 17.0193 19.4504 16.17 19.844 15.2553C20.2376 14.3407 20.4672 13.2953 20.5984 12.152C20.6968 11.0413 20.664 10.1267 20.4016 9.408C20.172 8.68933 19.844 8.06867 19.3848 7.644C18.9584 7.18667 18.4336 6.89267 17.876 6.69667C17.3184 6.50067 16.728 6.40267 16.1704 6.40267C15.6128 6.40267 15.088 6.468 14.5632 6.63133C14.0384 6.79467 13.5136 6.99067 12.9888 7.21933C13.0544 7.252 13.12 7.28467 13.2184 7.38267C13.3496 7.51333 13.448 7.70933 13.5136 7.938C12.9888 10.0613 12.5624 11.8253 12.2016 13.2627C11.8736 14.7 11.5784 15.8433 11.3816 16.758C11.1848 17.8033 10.988 18.6527 10.8568 19.2733Z" fill="white"/>
<path d="M22.14 29.4C21.976 29.6287 21.812 29.792 21.6152 29.89C21.4184 29.9553 21.2544 29.988 21.1232 29.9227C20.992 29.8573 20.8936 29.7593 20.828 29.5633C20.7952 29.4 20.828 29.1713 20.9592 28.91C21.0248 28.7793 21.1888 28.4853 21.4184 28.028C21.648 27.5707 21.9104 27.0153 22.2384 26.362C22.5664 25.7087 22.8944 25.0227 23.288 24.2713C23.6816 23.52 24.0096 22.8013 24.3704 22.1153C24.6984 21.4293 25.0264 20.8413 25.3216 20.286C25.6168 19.7633 25.8136 19.3713 25.9448 19.11C25.7152 18.8813 25.5512 18.718 25.4528 18.62C25.3544 18.522 25.2888 18.2933 25.256 17.9667C25.2232 17.6727 25.2888 17.3133 25.4528 16.856C25.6168 16.3987 25.8464 15.9413 26.1416 15.5167C26.4368 15.092 26.732 14.7327 27.0928 14.406C27.4536 14.112 27.7816 13.9487 28.1096 13.9487C28.7328 13.9487 29.1592 14.1447 29.4216 14.5367C29.684 14.9287 29.8152 15.3207 29.8808 15.7453C29.9136 16.0393 29.9136 16.3987 29.8152 16.8233C29.7168 17.248 29.5528 17.64 29.3232 17.9993C29.3888 18.032 29.4872 18.0973 29.5856 18.1627C29.684 18.228 29.8808 18.2607 30.1104 18.2607C30.4712 18.2607 30.7008 18.228 30.8648 18.1953C30.996 18.1627 31.2256 18.13 31.5536 18.13C31.9144 18.13 32.2424 18.228 32.472 18.424C32.7016 18.62 32.8984 18.8487 33.0624 19.11C33.2264 19.3713 33.3248 19.6653 33.4232 19.992C33.4888 20.3187 33.5544 20.6127 33.5872 20.874C33.6528 21.4293 33.5216 21.9847 33.1608 22.5727C32.7344 23.1933 32.308 23.8467 31.816 24.5327C31.5208 24.9573 31.1928 25.48 30.8976 26.0027C30.6024 26.558 30.4712 27.048 30.504 27.4727C30.5368 27.7667 30.6352 27.9953 30.7336 28.1587C30.832 28.322 31.16 28.42 31.652 28.42C32.0128 28.42 32.4392 28.2893 32.8984 27.9953C33.3576 27.734 33.8168 27.3747 34.276 26.95C34.7352 26.5253 35.2272 26.068 35.6864 25.5453C36.1456 25.0227 36.572 24.5327 36.9656 24.0427C37.3592 23.5527 37.6872 23.0953 37.9824 22.7033C38.2448 22.3113 38.4744 22.0173 38.6056 21.854C38.704 21.6907 38.868 21.56 39.032 21.4947C39.196 21.4293 39.36 21.4293 39.4912 21.4947C39.6224 21.56 39.7208 21.6907 39.7536 21.8867C39.7864 22.0827 39.688 22.344 39.4912 22.6707C39.36 22.8993 39.1304 23.226 38.8024 23.716C38.4744 24.206 38.1136 24.7287 37.6544 25.3167C37.1952 25.9047 36.7032 26.5253 36.1456 27.146C35.588 27.7667 35.0304 28.3547 34.4072 28.8447C33.8168 29.3673 33.1936 29.792 32.6032 30.1187C32.0128 30.4453 31.4224 30.6087 30.8648 30.6087C30.3072 30.6087 29.8152 30.5107 29.4544 30.282C29.0936 30.0533 28.7656 29.792 28.536 29.4653C28.3064 29.1387 28.1424 28.812 28.044 28.42C27.9456 28.028 27.9128 27.6687 27.9128 27.342C27.9456 27.0807 28.0112 26.7867 28.1424 26.4927C28.2736 26.1987 28.4048 25.9047 28.5688 25.578C28.7328 25.2513 28.8968 24.9573 29.0936 24.6307C29.2904 24.304 29.4544 24.01 29.6184 23.6833C29.9792 23.0627 30.3072 22.5073 30.5368 22.05C30.7664 21.5927 30.8976 21.2333 30.8976 20.9067C30.8976 20.7107 30.8648 20.5473 30.7664 20.384C30.668 20.2207 30.5368 20.1553 30.34 20.1553C30.2088 20.1553 30.1104 20.1553 30.0448 20.188C29.9464 20.2533 29.9136 20.2533 29.848 20.2533C29.7824 20.2533 29.7168 20.2533 29.6184 20.2533C29.52 20.2533 29.356 20.2533 29.1592 20.2533C28.864 20.2533 28.6344 20.2207 28.4376 20.1227C28.2408 20.0247 28.044 19.9593 27.88 19.9267C27.7816 20.09 27.5848 20.4167 27.2896 20.9067C26.9944 21.3967 26.6336 22.0173 26.2072 22.6707C25.8136 23.3567 25.3872 24.0753 24.928 24.794C24.4688 25.5453 24.0424 26.2313 23.6488 26.8847C23.2552 27.538 22.9272 28.0933 22.632 28.518C22.3696 29.0407 22.2056 29.302 22.14 29.4Z" fill="white"/>
<path d="M46.8712 24.3367C46.6416 25.1533 46.3464 25.9373 45.9856 26.656C45.6248 27.3747 45.1656 27.9953 44.6408 28.518C44.116 29.0407 43.5256 29.4653 42.9024 29.7593C42.2464 30.0533 41.5576 30.2167 40.7704 30.2167C39.852 30.2167 39.1632 30.0207 38.6384 29.6287C38.1136 29.2367 37.72 28.7793 37.4904 28.1913C37.228 27.636 37.0968 26.9827 37.0312 26.3293C36.9656 25.6433 36.9328 25.0227 36.9328 24.4347C36.9328 24.01 36.9984 23.5527 37.0968 23.0627C37.1952 22.5727 37.3264 22.05 37.5232 21.5273C37.6872 21.0047 37.9168 20.482 38.212 19.9593C38.4744 19.4367 38.8024 18.9467 39.196 18.522C39.3272 18.1627 39.524 17.836 39.8192 17.542C40.0816 17.248 40.4096 17.0193 40.7704 16.8233C41.1312 16.6273 41.5248 16.4967 41.9512 16.3987C42.3776 16.3007 42.7712 16.2353 43.1648 16.2353C43.2304 16.2353 43.296 16.2353 43.3616 16.268C43.4272 16.3007 43.4928 16.3007 43.5584 16.3333C43.8536 16.366 44.2144 16.464 44.6408 16.66C45.0672 16.856 45.4936 17.15 45.8872 17.542C46.2808 17.934 46.6416 18.424 46.9368 19.0447C47.232 19.6327 47.3632 20.384 47.3632 21.2333C47.3632 21.3967 47.3632 21.6253 47.3304 21.8867C47.2976 22.148 47.2976 22.344 47.2648 22.54C47.7568 22.344 48.3144 22.1153 48.8392 21.8213C49.3968 21.5273 49.9216 21.2333 50.4464 20.9067C50.9712 20.58 51.4304 20.2533 51.8896 19.9267C52.316 19.6 52.6768 19.306 52.9392 19.0447C53.1688 18.8487 53.3328 18.7507 53.4968 18.718C53.6608 18.6853 53.7592 18.7507 53.8248 18.8487C53.8904 18.9467 53.8904 19.11 53.8576 19.306C53.8248 19.502 53.6936 19.7307 53.4968 19.9593C53.3984 20.09 53.1032 20.3513 52.644 20.7433C52.1848 21.1353 51.66 21.56 51.0368 22.0173C50.4136 22.4747 49.7576 22.932 49.036 23.3567C48.3144 23.7813 47.5272 24.108 46.8712 24.3367ZM39.196 25.1207C39.196 25.5127 39.2288 25.9047 39.2616 26.2967C39.2944 26.6887 39.3928 27.0153 39.524 27.3093C39.6552 27.6033 39.8192 27.832 40.0488 28.028C40.2784 28.224 40.5408 28.322 40.9016 28.322C41.2952 28.322 41.656 28.224 41.984 28.028C42.312 27.832 42.6072 27.6033 42.8696 27.3093C43.132 27.0153 43.3616 26.6887 43.5912 26.2967C43.788 25.9047 43.9848 25.5127 44.1488 25.088C43.9848 25.1207 43.8536 25.1207 43.6896 25.1533C43.5584 25.1533 43.3944 25.1533 43.1976 25.1533C42.3776 25.1533 41.656 24.892 41.0328 24.402C40.4424 23.912 39.9504 23.2913 39.6224 22.5073C39.4912 22.9647 39.3928 23.422 39.2944 23.8467C39.2288 24.3367 39.196 24.7287 39.196 25.1207ZM41.2952 19.3387C41.2296 19.5347 41.1968 19.7307 41.1968 19.9593C41.1968 20.3187 41.2296 20.678 41.2624 21.07C41.2952 21.462 41.4264 21.7887 41.5904 22.1153C41.7544 22.4093 42.0496 22.6707 42.4432 22.8993C42.8368 23.0953 43.3616 23.226 44.0504 23.226C44.1488 23.226 44.28 23.226 44.3784 23.226C44.4768 23.226 44.608 23.1933 44.7064 23.1607C44.772 22.8667 44.8376 22.6053 44.9032 22.3767C44.9688 22.148 45.0016 21.952 45.0016 21.756C45.0344 21.3313 45.0344 20.9067 45.0016 20.482C44.9688 20.0573 44.8704 19.6327 44.7392 19.2733C44.608 18.914 44.4768 18.62 44.28 18.3913C44.0832 18.1627 43.8536 18.032 43.5912 18.032C43.1648 18.032 42.7712 18.1627 42.3776 18.3913C41.984 18.62 41.6232 18.9467 41.2952 19.3387Z" fill="white"/>
<path d="M66.7152 20.0573C66.092 20.0247 65.3048 20.0247 64.3864 20.0247C63.4352 20.0247 62.5168 20.0573 61.5984 20.09C60.9752 20.1227 60.352 20.1553 59.7288 20.2207C59.1712 20.2533 58.5808 20.3187 57.9248 20.4167C57.2688 20.5147 56.6456 20.6453 56.0552 20.8087C56.0224 20.6453 56.0224 20.4493 56.0552 20.286C56.088 20.1227 56.1208 19.9593 56.1536 19.796C56.1864 19.6327 56.252 19.4693 56.2848 19.306C56.3832 19.0773 56.5144 18.8487 56.6784 18.62C56.8424 18.3913 57.0064 18.228 57.1376 18.1627C57.236 18.13 57.4656 18.0647 57.8264 18.032C58.1544 17.9993 58.5808 17.934 59.04 17.9013C59.4992 17.8687 60.0568 17.836 60.6144 17.8033C61.2048 17.7707 61.7624 17.7707 62.3528 17.7707C63.5336 17.738 64.4848 17.738 65.272 17.7707C66.0264 17.8033 66.7808 17.8687 67.4696 17.934C67.7648 17.9667 67.9616 18.0647 68.0272 18.228C68.0928 18.3913 68.06 18.6527 67.896 19.0447C67.7648 19.404 67.6336 19.6653 67.4696 19.8287C67.24 20.0247 67.0104 20.09 66.7152 20.0573Z" fill="white"/>
<path d="M73.1768 8.98333C72.9144 9.08133 72.7176 9.08133 72.5864 9.016C72.4552 8.95067 72.3568 8.85267 72.2912 8.68933C72.2256 8.526 72.1928 8.36267 72.1928 8.16667C72.1928 7.97067 72.1928 7.80733 72.2256 7.61133C72.2584 7.448 72.2912 7.28467 72.3568 7.08867C72.4224 6.89267 72.488 6.69667 72.5864 6.53333C72.6848 6.37 72.7832 6.20667 72.9144 6.076C73.0456 5.94533 73.2096 5.88 73.4064 5.81467C74.4232 5.65133 75.4072 5.52067 76.3584 5.42267C77.3096 5.32467 78.1624 5.25933 78.9496 5.22667C79.8352 5.16133 80.688 5.12867 81.4752 5.12867C81.6392 5.12867 81.836 5.12867 82 5.16133C82.164 5.16133 82.3608 5.194 82.5248 5.194C82.7216 5.16133 82.8856 5.12867 83.0168 5.12867C83.148 5.12867 83.2464 5.16133 83.3448 5.194C83.968 5.22667 84.6568 5.25933 85.3128 5.292C85.8704 5.32467 86.5264 5.39 87.248 5.45533C87.9696 5.52067 88.6584 5.586 89.38 5.684C89.4456 5.84733 89.4456 6.076 89.4128 6.33733C89.38 6.468 89.38 6.59867 89.3472 6.72933C89.3144 6.86 89.2816 6.99067 89.1832 7.08867C89.1176 7.18667 89.0192 7.31733 88.9208 7.41533C88.8224 7.51333 88.6912 7.61133 88.56 7.67667C87.8056 7.644 87.084 7.644 86.3952 7.61133C85.7064 7.61133 85.0832 7.57867 84.5584 7.57867H82.7872C82.492 8.59134 82.164 9.83267 81.7376 11.3027C81.3112 12.7727 80.8848 14.3407 80.4584 15.974C80.032 17.6073 79.6384 19.2407 79.2448 20.8413C78.8512 22.442 78.556 23.912 78.3264 25.186C78.0968 26.4273 77.9 27.6687 77.6704 28.8773C77.572 29.3673 77.4736 29.9227 77.3752 30.4453C77.2768 31.0007 77.1784 31.5233 77.1128 32.046C77.0472 32.5687 76.9488 33.0913 76.8832 33.5487C76.8176 34.006 76.752 34.4633 76.7192 34.8553C76.3584 35.0187 76.0304 35.182 75.7352 35.28C75.44 35.378 75.1448 35.4433 74.9152 35.5087C74.62 35.574 74.3576 35.6067 74.128 35.6067C73.6032 35.6067 73.2752 35.5413 73.144 35.4107C73.0128 35.28 73.0128 35.0513 73.0784 34.692C73.144 34.398 73.3408 33.5487 73.6688 32.2093C73.8 31.654 73.964 30.9353 74.1936 30.0533C74.3904 29.204 74.6528 28.126 74.948 26.8847C75.2432 25.6433 75.5712 24.206 75.9648 22.54C76.3584 20.874 76.8176 18.9793 77.3096 16.8233L79.5072 7.67667C78.8512 7.77467 78.1952 7.87267 77.572 7.97067C76.9488 8.06867 76.3256 8.19933 75.768 8.33C75.2104 8.46067 74.6856 8.55867 74.2592 8.68933C73.8 8.85267 73.4392 8.918 73.1768 8.98333Z" fill="white"/>
<path d="M100.434 22.736C99.7776 23.716 99.0232 24.6307 98.2032 25.5453C97.3832 26.46 96.4976 27.2767 95.5464 27.9627C94.5952 28.6813 93.644 29.2367 92.66 29.694C91.676 30.1187 90.7248 30.3473 89.8064 30.3473C89.3144 30.3473 88.7896 30.2167 88.232 29.988C87.6744 29.7593 87.1496 29.4 86.6904 28.91C86.2312 28.42 85.8704 27.7993 85.5752 27.048C85.3128 26.2967 85.2144 25.3493 85.3128 24.2713C85.4112 23.3567 85.6736 22.442 86.1656 21.4293C86.6248 20.4167 87.2152 19.5347 87.904 18.6853C88.5928 17.836 89.38 17.15 90.2328 16.6273C91.0856 16.072 91.9712 15.8107 92.8568 15.8107C93.6768 15.8107 94.3 16.0067 94.6608 16.4313C95.0216 16.856 95.1856 17.3787 95.1528 17.9667C95.0872 18.6527 94.8904 19.2733 94.5624 19.8287C94.2344 20.384 93.8736 20.9067 93.4144 21.364C92.988 21.8213 92.496 22.246 92.004 22.6053C91.512 22.9647 91.0528 23.324 90.5936 23.618C90.1016 23.9447 89.6424 24.2713 89.216 24.5653C88.7896 24.8593 88.396 25.1207 88.068 25.382C88.1008 25.9373 88.1992 26.3947 88.3632 26.754C88.5272 27.1133 88.7568 27.44 89.0192 27.6687C89.2816 27.8973 89.5768 28.0607 89.9376 28.1587C90.2656 28.2567 90.6264 28.322 90.9872 28.322C91.7416 28.322 92.5288 28.0933 93.316 27.6033C94.136 27.146 94.9232 26.558 95.7104 25.9047C96.4976 25.2513 97.2192 24.5327 97.8752 23.814C98.5312 23.0953 99.0888 22.4747 99.548 21.952C99.712 21.7887 99.876 21.658 100.04 21.6253C100.204 21.5927 100.335 21.6253 100.434 21.6907C100.532 21.756 100.598 21.8867 100.598 22.0827C100.663 22.2787 100.565 22.5073 100.434 22.736ZM91.9712 17.6727C91.7088 17.6727 91.3808 17.8033 91.02 18.0647C90.6592 18.326 90.2984 18.718 89.9376 19.208C89.5768 19.698 89.2488 20.3187 88.9536 21.0047C88.6584 21.7233 88.4288 22.54 88.2648 23.4547C88.5272 23.2587 88.8224 23.0627 89.1176 22.834C89.4128 22.638 89.7408 22.4093 90.036 22.148C90.9872 21.4293 91.6432 20.776 92.004 20.2533C92.3648 19.698 92.5944 19.2407 92.6272 18.8487C92.66 18.424 92.6272 18.13 92.496 17.934C92.3976 17.7707 92.2336 17.6727 91.9712 17.6727Z" fill="white"/>
<path d="M94.3656 44.492C93.7752 44.492 93.2504 44.3287 92.824 44.002C92.3976 43.6753 92.0368 43.2507 91.7416 42.7607C91.4792 42.2707 91.2496 41.7153 91.1184 41.1273C90.9872 40.5393 90.9216 39.984 90.9544 39.4613C90.9872 39.004 91.1512 38.416 91.4792 37.6973C91.8072 36.9787 92.2336 36.1947 92.824 35.378C93.3816 34.5613 94.1032 33.712 94.8904 32.8953C95.7104 32.046 96.596 31.2947 97.58 30.6413C97.7112 29.9553 97.8424 29.2693 98.0064 28.5507C98.1376 27.832 98.3016 27.146 98.4328 26.4927C98.564 25.8393 98.6952 25.186 98.8592 24.598C98.9904 24.01 99.1544 23.4547 99.2856 22.9973C99.4496 22.4093 99.6136 21.7887 99.7776 21.1353C99.9416 20.58 100.106 19.9267 100.302 19.2407C100.499 18.5547 100.696 17.8687 100.926 17.15C101.155 17.052 101.352 16.954 101.549 16.9213C101.746 16.8887 101.91 16.856 102.074 16.8233C102.238 16.7907 102.402 16.7907 102.566 16.8233C102.73 16.856 102.861 16.8887 103.025 16.954C103.32 17.052 103.55 17.248 103.779 17.542C103.418 18.718 103.09 19.7307 102.828 20.58C102.566 21.3967 102.369 22.1153 102.172 22.638C101.975 23.2587 101.811 23.814 101.713 24.2387C101.516 24.8593 101.352 25.5453 101.188 26.3293C101.024 27.1133 100.86 27.93 100.663 28.8447C101.582 28.2893 102.5 27.6033 103.451 26.852C104.37 26.1007 105.255 25.3493 106.01 24.598C106.797 23.8793 107.453 23.226 107.978 22.6707C108.502 22.1153 108.863 21.756 108.994 21.5927C109.158 21.4293 109.29 21.3313 109.454 21.2987C109.618 21.2987 109.749 21.3313 109.847 21.462C109.946 21.5927 109.978 21.7233 109.978 21.952C109.978 22.148 109.847 22.4093 109.65 22.6707C109.355 23.0953 108.896 23.6507 108.273 24.3367C107.65 24.99 106.961 25.7087 106.174 26.4273C105.386 27.146 104.534 27.8973 103.615 28.616C102.697 29.3347 101.811 29.988 100.893 30.5107C100.696 30.6087 100.466 30.772 100.237 30.9353C99.9416 32.242 99.6464 33.4833 99.3512 34.7573C99.056 36.0313 98.7608 37.1747 98.4 38.2527C98.072 39.298 97.7768 40.2453 97.5144 41.0293C97.252 41.8133 96.9896 42.4993 96.6944 43.022C96.3992 43.5447 96.0712 43.9367 95.7104 44.198C95.3496 44.4593 94.8904 44.492 94.3656 44.492ZM93.152 40.3433C93.1192 41.0947 93.152 41.6827 93.316 42.0747C93.48 42.4667 93.6768 42.6627 93.9392 42.6627C94.1032 42.6627 94.3 42.4667 94.5296 42.1073C94.7264 41.748 94.9232 41.258 95.12 40.7027C95.3168 40.1473 95.4808 39.5267 95.6776 38.8407C95.8744 38.1873 96.0384 37.534 96.1696 36.946C96.3008 36.358 96.432 35.8353 96.5304 35.4433C96.6288 35.0513 96.6616 34.79 96.6944 34.7247C96.7272 34.5613 96.7928 34.3653 96.8256 34.1693C96.8584 33.9733 96.924 33.7447 96.9568 33.516C96.4648 34.0387 95.9728 34.594 95.5136 35.1493C95.0544 35.7047 94.6608 36.2927 94.3328 36.8807C94.0048 37.4687 93.7096 38.0567 93.5128 38.6447C93.316 39.2 93.1848 39.788 93.152 40.3433ZM105.911 9.27733C105.911 9.47333 105.846 9.702 105.682 9.996C105.55 10.2573 105.354 10.5187 105.124 10.7473C104.894 10.976 104.632 11.172 104.37 11.3353C104.107 11.4987 103.812 11.5967 103.517 11.5967C103.287 11.5967 103.058 11.466 102.861 11.2373C102.664 11.0087 102.566 10.682 102.598 10.2573C102.598 9.96333 102.697 9.66933 102.861 9.34267C103.025 9.016 103.222 8.722 103.484 8.46067C103.746 8.19933 104.009 7.97067 104.304 7.80733C104.599 7.644 104.894 7.546 105.157 7.546C105.518 7.546 105.747 7.70933 105.846 8.06867C105.878 8.428 105.911 8.82 105.911 9.27733Z" fill="white"/>
<path d="M109.782 17.2153C109.88 17.0847 110.11 16.9867 110.405 16.8887C110.7 16.7907 111.028 16.7253 111.356 16.66C111.684 16.5947 111.979 16.562 112.274 16.562C112.537 16.562 112.701 16.562 112.766 16.5947C112.799 16.6273 112.734 16.856 112.602 17.2807C112.471 17.7053 112.307 18.228 112.11 18.816C111.914 19.404 111.717 20.0247 111.487 20.6453C111.258 21.266 111.094 21.7887 110.995 22.1807C110.897 22.5727 110.766 23.03 110.602 23.52C110.438 24.01 110.306 24.5 110.175 24.9573C110.044 25.4147 109.978 25.872 109.913 26.2967C109.88 26.7213 109.913 27.0153 110.011 27.244C110.11 27.5053 110.241 27.7013 110.372 27.7993C110.503 27.8973 110.634 27.9627 110.798 27.9627C111.225 27.9627 111.782 27.734 112.471 27.244C113.127 26.754 113.816 26.1987 114.505 25.5127C115.194 24.8593 115.85 24.1733 116.44 23.4873C117.03 22.8013 117.49 22.246 117.752 21.8213C117.916 21.5927 118.113 21.462 118.31 21.3967C118.506 21.3313 118.638 21.3313 118.769 21.4293C118.9 21.5273 118.966 21.658 118.966 21.854C118.966 22.05 118.9 22.2787 118.736 22.54C118.375 23.1607 117.85 23.8793 117.194 24.7287C116.506 25.578 115.784 26.3947 115.03 27.146C114.275 27.93 113.521 28.5833 112.766 29.1387C112.045 29.694 111.422 29.9553 110.962 29.988C110.602 30.0207 110.208 29.9553 109.847 29.792C109.486 29.6613 109.158 29.4653 108.863 29.204C108.568 28.9427 108.306 28.6487 108.109 28.322C107.912 27.9953 107.814 27.636 107.781 27.244C107.715 26.6887 107.715 25.9373 107.781 24.99C107.846 24.0427 107.978 23.0627 108.142 22.05C108.306 21.0373 108.535 20.09 108.83 19.208C109.126 18.326 109.454 17.64 109.782 17.2153ZM114.341 10.2247C114.275 10.4533 114.144 10.7147 113.947 10.9433C113.75 11.172 113.554 11.368 113.324 11.4987C113.094 11.6293 112.865 11.7273 112.602 11.7927C112.373 11.8253 112.176 11.7927 112.012 11.662C111.553 11.3027 111.323 10.9433 111.29 10.5187C111.258 10.1267 111.356 9.73467 111.586 9.37533C111.815 9.016 112.078 8.722 112.406 8.46067C112.734 8.19933 113.029 8.06867 113.258 8.00333C113.488 7.97067 113.718 8.00333 113.882 8.16667C114.046 8.29733 114.177 8.49333 114.275 8.722C114.374 8.95067 114.406 9.212 114.439 9.506C114.439 9.73467 114.406 9.996 114.341 10.2247Z" fill="white"/>
<path d="M126.838 23.2913C126.739 23.9773 126.608 24.6307 126.51 25.2187C126.411 25.8393 126.346 26.3293 126.313 26.6887C126.28 27.244 126.378 27.636 126.608 27.8647C126.838 28.0933 127.067 28.224 127.33 28.224C127.625 28.224 128.018 28.0607 128.478 27.7667C128.937 27.4727 129.396 27.0807 129.921 26.6233C130.446 26.166 130.938 25.6433 131.43 25.1207C131.922 24.598 132.414 24.0427 132.84 23.5527C133.266 23.0627 133.627 22.638 133.922 22.246C134.218 21.8867 134.414 21.6253 134.546 21.5273C134.677 21.3967 134.808 21.3313 134.972 21.2987C135.103 21.266 135.234 21.2987 135.333 21.364C135.431 21.4293 135.464 21.56 135.464 21.7233C135.464 21.8867 135.366 22.1153 135.202 22.3767C134.939 22.8013 134.611 23.2913 134.185 23.8467C133.758 24.402 133.299 24.99 132.807 25.578C132.315 26.166 131.758 26.754 131.2 27.3093C130.642 27.8647 130.085 28.3873 129.527 28.812C128.97 29.2367 128.412 29.596 127.92 29.89C127.395 30.1513 126.936 30.3147 126.51 30.3147C126.214 30.3147 125.919 30.2167 125.624 30.0533C125.362 29.89 125.099 29.6613 124.87 29.3673C124.64 29.0733 124.476 28.7793 124.345 28.42C124.214 28.0607 124.181 27.734 124.181 27.3747C124.214 27.2113 124.246 26.95 124.279 26.5907C123.361 27.636 122.41 28.42 121.491 29.0407C120.54 29.6287 119.654 29.9553 118.802 29.9553C118.506 29.9553 118.178 29.89 117.818 29.7267C117.457 29.5633 117.162 29.3347 116.866 28.9753C116.604 28.616 116.374 28.1587 116.178 27.6033C116.014 27.048 115.948 26.3293 115.981 25.5453C116.046 24.2713 116.309 23.0627 116.735 21.9193C117.162 20.776 117.719 19.796 118.408 18.9467C119.064 18.0973 119.851 17.444 120.671 16.954C121.524 16.464 122.377 16.2027 123.23 16.2027C123.59 16.2027 123.951 16.3007 124.246 16.4967C124.542 16.6927 124.804 16.9213 125.034 17.2153C125.263 17.5093 125.427 17.836 125.591 18.1953C125.722 18.5547 125.854 18.8813 125.919 19.1753C126.083 18.5547 126.214 17.9013 126.346 17.3133C126.477 16.7253 126.608 16.1047 126.739 15.582C126.969 14.7653 127.198 13.8833 127.428 12.9687C127.658 12.152 127.887 11.2373 128.182 10.192C128.478 9.14667 128.773 8.036 129.134 6.86C129.363 6.69667 129.56 6.566 129.757 6.468C129.954 6.37 130.15 6.30467 130.314 6.272C130.511 6.20667 130.708 6.174 130.872 6.174C131.102 6.174 131.298 6.20667 131.462 6.272C131.626 6.33734 131.79 6.468 131.922 6.69667C132.053 6.92534 132.118 7.28467 132.184 7.742C132.217 8.19934 132.217 8.82 132.184 9.604C132.151 10.584 131.954 11.6293 131.659 12.7727C131.364 13.916 130.97 15.092 130.478 16.3007C129.986 17.5093 129.429 18.718 128.806 19.9593C128.182 21.2007 127.559 22.1807 126.838 23.2913ZM124.902 23.716C125.001 23.2913 125.066 22.8993 125.165 22.4747C125.23 22.05 125.329 21.6253 125.46 21.2007C125.427 21.2333 125.362 21.2333 125.329 21.266C125.296 21.2987 125.263 21.2987 125.198 21.3313C124.968 21.4293 124.804 21.4293 124.706 21.2987C124.607 21.168 124.574 20.972 124.574 20.7107C124.574 20.58 124.574 20.3513 124.542 19.992C124.509 19.6653 124.443 19.306 124.345 18.9467C124.246 18.5873 124.082 18.2607 123.886 17.9993C123.689 17.738 123.426 17.5747 123.066 17.5747C122.574 17.5747 122.049 17.836 121.524 18.3587C120.999 18.8813 120.507 19.502 120.048 20.2207C119.589 20.9393 119.195 21.7233 118.9 22.5727C118.605 23.3893 118.408 24.1407 118.375 24.794C118.342 25.8393 118.474 26.5907 118.769 27.048C119.064 27.5053 119.49 27.734 120.015 27.734C120.409 27.734 120.835 27.5707 121.327 27.2767C121.786 26.9827 122.246 26.5907 122.705 26.166C123.164 25.7413 123.558 25.284 123.951 24.8267C124.345 24.402 124.673 24.01 124.902 23.716Z" fill="white"/>
<path d="M149.601 23.03C149.306 23.4547 148.912 24.01 148.42 24.6633C147.928 25.3167 147.436 25.97 146.911 26.5907C146.386 27.244 145.894 27.832 145.402 28.3547C144.91 28.8773 144.484 29.2693 144.156 29.498C143.926 29.6287 143.697 29.7267 143.402 29.8247C143.106 29.9227 142.811 29.9553 142.516 29.988C142.221 30.0207 141.926 29.988 141.663 29.9227C141.401 29.8573 141.171 29.7593 140.974 29.6287C140.778 29.4653 140.614 29.2693 140.482 28.9753C140.384 28.7467 140.253 28.42 140.154 28.028C140.056 27.636 140.023 27.146 140.023 26.558C139.498 27.44 138.908 28.0933 138.285 28.5833C137.662 29.0407 137.038 29.4 136.481 29.6287C135.825 29.8573 135.169 30.0207 134.513 30.0533C134.218 30.0533 133.89 29.9553 133.529 29.7267C133.168 29.5307 132.873 29.204 132.643 28.7467C132.414 28.2893 132.25 27.7013 132.184 27.0153C132.118 26.2967 132.217 25.4473 132.446 24.4673C132.742 23.128 133.234 21.9193 133.922 20.8087C134.578 19.698 135.333 18.7833 136.12 17.9993C136.907 17.2153 137.694 16.6273 138.449 16.2353C139.203 15.8433 139.859 15.68 140.351 15.7127C140.942 15.8107 141.434 16.0067 141.794 16.2353C142.09 16.464 142.319 16.7907 142.418 17.2153C142.516 17.64 142.319 18.1953 141.86 18.914C142.155 18.8487 142.418 18.816 142.647 18.7833C142.844 18.7507 143.008 18.7507 143.139 18.7507C143.27 18.7507 143.369 18.7507 143.402 18.7833C143.434 18.816 143.434 18.914 143.434 19.0773C143.434 19.208 143.402 19.4693 143.336 19.8613C143.27 20.2207 143.172 20.7433 143.041 21.364C142.91 21.9847 142.746 22.834 142.516 23.814C142.483 24.01 142.418 24.206 142.385 24.3693C142.352 24.5327 142.319 24.696 142.286 24.8593C142.254 25.0227 142.221 25.2187 142.155 25.4473C142.122 25.676 142.057 25.9373 141.991 26.264C141.958 26.46 141.958 26.6887 141.991 26.9173C141.991 27.146 142.057 27.3747 142.122 27.5707C142.188 27.7667 142.286 27.93 142.45 28.0607C142.582 28.1913 142.811 28.2567 143.074 28.2567C143.303 28.2567 143.566 28.126 143.926 27.832C144.287 27.5707 144.648 27.2113 145.042 26.7867C145.435 26.362 145.862 25.9047 146.288 25.382C146.714 24.8593 147.108 24.3693 147.502 23.8793C147.862 23.3893 148.223 22.9647 148.518 22.6053C148.814 22.246 149.043 21.952 149.174 21.7887C149.338 21.5927 149.535 21.462 149.699 21.4293C149.863 21.3967 149.994 21.462 150.093 21.5927C150.191 21.7233 150.191 21.9193 150.158 22.1807C150.027 22.3767 149.863 22.6707 149.601 23.03ZM139.958 24.4673C140.056 24.0427 140.187 23.52 140.351 22.932C140.515 22.344 140.646 21.756 140.745 21.2333C140.843 20.678 140.942 20.2207 141.007 19.8613C141.073 19.502 141.04 19.3387 140.942 19.3387C140.843 19.3713 140.712 19.404 140.581 19.4367C140.482 19.4693 140.318 19.502 140.154 19.5347C139.99 19.5673 139.794 19.6 139.63 19.6327C139.794 19.2733 139.925 18.9793 139.958 18.7507C139.99 18.522 139.99 18.326 139.99 18.1953C139.958 18.032 139.925 17.934 139.859 17.836C139.63 17.64 139.203 17.8033 138.58 18.326C137.99 18.8487 137.268 19.796 136.481 21.168C136.153 21.7233 135.89 22.344 135.694 22.9973C135.497 23.6507 135.366 24.2387 135.267 24.8267C135.202 25.382 135.169 25.9047 135.202 26.3293C135.234 26.754 135.333 27.048 135.464 27.1787C135.694 27.4073 135.989 27.538 136.284 27.538C136.579 27.538 136.907 27.44 137.235 27.2767C137.563 27.1133 137.858 26.8847 138.186 26.6233C138.514 26.362 138.777 26.1007 139.039 25.8067C139.302 25.5127 139.498 25.2513 139.662 25.0227C139.826 24.794 139.925 24.598 139.958 24.4673Z" fill="white"/>
<path d="M152.061 28.4527C152.192 28.5507 152.356 28.5833 152.586 28.5833C152.782 28.5833 153.012 28.5507 153.209 28.4527C153.406 28.3547 153.602 28.2567 153.799 28.0933C153.996 27.93 154.127 27.734 154.226 27.5053C154.324 27.2767 154.324 26.9173 154.226 26.46C154.127 26.0027 153.996 25.5453 153.799 25.0227C153.602 24.5 153.406 23.9773 153.176 23.4547C152.946 22.932 152.782 22.442 152.618 22.0173C152.487 21.6907 152.389 21.3967 152.29 21.1027C152.192 20.874 152.126 20.6127 152.028 20.384C151.962 20.1553 151.897 19.992 151.831 19.894C151.733 20.0573 151.536 20.3513 151.241 20.7433C150.978 21.1353 150.683 21.56 150.355 21.9847C150.027 22.4093 149.732 22.8013 149.437 23.1607C149.142 23.52 148.945 23.7813 148.846 23.912C148.682 24.108 148.486 24.2387 148.322 24.2713C148.158 24.304 148.026 24.2713 147.895 24.1733C147.764 24.0753 147.731 23.9447 147.698 23.7487C147.698 23.5527 147.764 23.324 147.961 23.0627C148.092 22.8993 148.289 22.6053 148.551 22.2133C148.814 21.8213 149.076 21.4293 149.338 21.0373C149.601 20.6453 149.83 20.286 150.06 19.9593C150.29 19.6327 150.388 19.4367 150.421 19.3713C150.454 19.208 150.388 18.9793 150.224 18.6853C150.06 18.3913 150.027 18.0647 150.126 17.7053C150.224 17.4113 150.421 17.052 150.716 16.6273C151.011 16.2353 151.372 15.8433 151.798 15.5167C152.225 15.19 152.651 14.9287 153.078 14.7653C153.504 14.602 153.898 14.602 154.258 14.798C154.554 14.9613 154.783 15.1573 154.947 15.386C155.111 15.582 155.177 15.8107 155.144 16.0393C155.111 16.1373 155.046 16.3007 154.947 16.464C154.849 16.6273 154.718 16.856 154.554 17.1173C154.39 17.3787 154.127 17.7053 153.799 18.0973C153.865 18.5873 153.963 19.0773 154.094 19.4693C154.226 19.894 154.324 20.2533 154.455 20.5473C154.586 20.9067 154.718 21.266 154.882 21.56C155.078 21.952 155.275 22.344 155.505 22.7687C155.734 23.1933 155.931 23.5853 156.095 24.01C156.259 24.402 156.423 24.794 156.522 25.1533C156.62 25.5127 156.653 25.8067 156.62 26.0353C156.554 26.3947 156.358 26.852 156.03 27.3747C155.702 27.8973 155.308 28.42 154.849 28.91C154.39 29.4 153.832 29.8247 153.242 30.184C152.651 30.5433 151.995 30.7067 151.339 30.7067C150.88 30.7067 150.421 30.576 149.994 30.282C149.568 29.988 149.207 29.6613 148.912 29.2693C148.617 28.8773 148.387 28.518 148.256 28.126C148.125 27.7667 148.092 27.4727 148.19 27.2767C148.322 27.0153 148.453 26.8193 148.551 26.656C148.65 26.4927 148.814 26.3293 149.043 26.1333C149.142 26.068 149.24 26.0027 149.371 25.9047C149.47 25.8393 149.634 25.774 149.83 25.7087C150.027 25.6433 150.257 25.578 150.519 25.48C150.749 26.166 150.946 26.6887 151.11 27.0807C151.274 27.4727 151.438 27.7667 151.536 27.9953C151.831 28.1913 151.93 28.3547 152.061 28.4527Z" fill="white"/>
</g>
<defs>
<filter id="filter0_d" x="-1" y="0" width="166" height="53" filterUnits="userSpaceOnUse" color-interpolation-filters="sRGB">
<feFlood flood-opacity="0" result="BackgroundImageFix"/>
<feColorMatrix in="SourceAlpha" type="matrix" values="0 0 0 0 0 0 0 0 0 0 0 0 0 0 0 0 0 0 127 0"/>
<feOffset dy="3"/>
<feGaussianBlur stdDeviation="0.5"/>
<feColorMatrix type="matrix" values="0 0 0 0 0.184288 0 0 0 0 0.258738 0 0 0 0 0.928791 0 0 0 0.8 0"/>
<feBlend mode="normal" in2="BackgroundImageFix" result="effect1_dropShadow"/>
<feBlend mode="normal" in="SourceGraphic" in2="effect1_dropShadow" result="shape"/>
</filter>
</defs>
</svg>
